<?xml version="1.0" standalone="no"?><svg xmlns="http://www.w3.org/2000/svg" viewBox="0 0 1440 320"><path fill="#045757" fill-opacity="1" d="M0,96L14.1,122.7C28.2,149,56,203,85,218.7C112.9,235,141,213,169,218.7C197.6,224,226,256,254,277.3C282.4,299,311,309,339,288C367.1,267,395,213,424,213.3C451.8,213,480,267,508,293.3C536.5,320,565,320,593,298.7C621.2,277,649,235,678,186.7C705.9,139,734,85,762,101.3C790.6,117,819,203,847,197.3C875.3,192,904,96,932,69.3C960,43,988,85,1016,112C1044.7,139,1073,149,1101,170.7C1129.4,192,1158,224,1186,218.7C1214.1,213,1242,171,1271,170.7C1298.8,171,1327,213,1355,218.7C1383.5,224,1412,192,1426,176L1440,160L1440,0L1425.9,0C1411.8,0,1384,0,1355,0C1327.1,0,1299,0,1271,0C1242.4,0,1214,0,1186,0C1157.6,0,1129,0,1101,0C1072.9,0,1045,0,1016,0C988.2,0,960,0,932,0C903.5,0,875,0,847,0C818.8,0,791,0,762,0C734.1,0,706,0,678,0C649.4,0,621,0,593,0C564.7,0,536,0,508,0C480,0,452,0,424,0C395.3,0,367,0,339,0C310.6,0,282,0,254,0C225.9,0,198,0,169,0C141.2,0,113,0,85,0C56.5,0,28,0,14,0L0,0Z"></path></svg>